<?xml version="1.0" encoding="utf-8" ?>
<!DOCTYPE svg PUBLIC "-//W3C//DTD SVG 1.1//EN" "http://www.w3.org/Graphics/SVG/1.1/DTD/svg11.dtd">
<svg height="620" version="1.1" width="817" xmlns="http://www.w3.org/2000/svg">
<rect fill="#ffffff" height="592" stroke="#ffffff" stroke-width="1" width="424" x="214" y="14"/>
<rect fill="none" height="592" stroke="#000000" stroke-width="1" width="424" x="214" y="14"/>
<text font-family="Dialog" font-size="12" x="31" y="163">
user</text>
<ellipse cx="44" cy="111" fill="#000000" rx="8.0" ry="7.5" stroke="#000000" stroke-width="1"/>
<ellipse cx="44" cy="111" fill="#ffffff" rx="7.0" ry="6.5" stroke="#ffffff" stroke-width="1"/>
<line fill="#000000" stroke="#000000" stroke-width="1" x1="44" x2="44" y1="119" y2="134"/>
<line fill="#000000" stroke="#000000" stroke-width="1" x1="34" x2="54" y1="124" y2="124"/>
<line fill="#000000" stroke="#000000" stroke-width="1" x1="44" x2="39" y1="134" y2="149"/>
<line fill="#000000" stroke="#000000" stroke-width="1" x1="44" x2="49" y1="134" y2="149"/>
<text font-family="Dialog" font-size="12" x="755" y="251">
admin</text>
<ellipse cx="772" cy="199" fill="#000000" rx="8.0" ry="7.5" stroke="#000000" stroke-width="1"/>
<ellipse cx="772" cy="199" fill="#ffffff" rx="7.0" ry="6.5" stroke="#ffffff" stroke-width="1"/>
<line fill="#000000" stroke="#000000" stroke-width="1" x1="772" x2="772" y1="207" y2="222"/>
<line fill="#000000" stroke="#000000" stroke-width="1" x1="762" x2="782" y1="212" y2="212"/>
<line fill="#000000" stroke="#000000" stroke-width="1" x1="772" x2="767" y1="222" y2="237"/>
<line fill="#000000" stroke="#000000" stroke-width="1" x1="772" x2="777" y1="222" y2="237"/>
<ellipse cx="461" cy="67" fill="#000000" rx="55.0" ry="21.0" stroke="#000000" stroke-width="1"/>
<ellipse cx="461" cy="67" fill="#ffffff" rx="54.0" ry="20.0" stroke="#ffffff" stroke-width="1"/>
<text font-family="Dialog" font-size="12" x="440" y="68">
rent car</text>
<ellipse cx="373" cy="235" fill="#000000" rx="55.0" ry="21.0" stroke="#000000" stroke-width="1"/>
<ellipse cx="373" cy="235" fill="#ffffff" rx="54.0" ry="20.0" stroke="#ffffff" stroke-width="1"/>
<text font-family="Dialog" font-size="12" x="347" y="236">
return car</text>
<ellipse cx="301" cy="123" fill="#000000" rx="55.0" ry="21.0" stroke="#000000" stroke-width="1"/>
<ellipse cx="301" cy="123" fill="#ffffff" rx="54.0" ry="20.0" stroke="#ffffff" stroke-width="1"/>
<text font-family="Dialog" font-size="12" x="271" y="124">
car service</text>
<polyline fill="none" points="54,124 246,123" stroke="#000000" stroke-width="1"/>
<line fill="#000000" stroke="#000000" stroke-width="1" x1="419" x2="415" y1="80" y2="81"/>
<line fill="#000000" stroke="#000000" stroke-width="1" x1="410" x2="405" y1="83" y2="85"/>
<line fill="#000000" stroke="#000000" stroke-width="1" x1="400" x2="396" y1="86" y2="88"/>
<line fill="#000000" stroke="#000000" stroke-width="1" x1="391" x2="386" y1="90" y2="91"/>
<line fill="#000000" stroke="#000000" stroke-width="1" x1="381" x2="377" y1="93" y2="95"/>
<line fill="#000000" stroke="#000000" stroke-width="1" x1="372" x2="367" y1="96" y2="98"/>
<line fill="#000000" stroke="#000000" stroke-width="1" x1="362" x2="358" y1="100" y2="101"/>
<line fill="#000000" stroke="#000000" stroke-width="1" x1="353" x2="348" y1="103" y2="105"/>
<line fill="#000000" stroke="#000000" stroke-width="1" x1="343" x2="340" y1="106" y2="108"/>
<line fill="#000000" stroke="#000000" stroke-width="1" x1="348" x2="340" y1="97" y2="108"/>
<line fill="#000000" stroke="#000000" stroke-width="1" x1="353" x2="340" y1="110" y2="108"/>
<text font-family="Dialog" font-size="12" x="340" y="78">
&lt;&lt;include&gt;&gt;</text>
<line fill="#000000" stroke="#000000" stroke-width="1" x1="359" x2="357" y1="214" y2="210"/>
<line fill="#000000" stroke="#000000" stroke-width="1" x1="354" x2="351" y1="206" y2="202"/>
<line fill="#000000" stroke="#000000" stroke-width="1" x1="349" x2="346" y1="198" y2="193"/>
<line fill="#000000" stroke="#000000" stroke-width="1" x1="343" x2="341" y1="189" y2="185"/>
<line fill="#000000" stroke="#000000" stroke-width="1" x1="338" x2="335" y1="181" y2="176"/>
<line fill="#000000" stroke="#000000" stroke-width="1" x1="333" x2="330" y1="172" y2="168"/>
<line fill="#000000" stroke="#000000" stroke-width="1" x1="327" x2="325" y1="164" y2="160"/>
<line fill="#000000" stroke="#000000" stroke-width="1" x1="322" x2="319" y1="155" y2="151"/>
<line fill="#000000" stroke="#000000" stroke-width="1" x1="317" x2="314" y1="147" y2="143"/>
<line fill="#000000" stroke="#000000" stroke-width="1" x1="326" x2="314" y1="149" y2="143"/>
<line fill="#000000" stroke="#000000" stroke-width="1" x1="314" x2="314" y1="156" y2="143"/>
<text font-family="Dialog" font-size="12" x="333" y="165">
&lt;&lt;include&gt;&gt;</text>
<ellipse cx="525" cy="211" fill="#000000" rx="55.0" ry="21.0" stroke="#000000" stroke-width="1"/>
<ellipse cx="525" cy="211" fill="#ffffff" rx="54.0" ry="20.0" stroke="#ffffff" stroke-width="1"/>
<text font-family="Dialog" font-size="12" x="489" y="212">
manage fleet</text>
<ellipse cx="485" cy="363" fill="#000000" rx="55.0" ry="21.0" stroke="#000000" stroke-width="1"/>
<ellipse cx="485" cy="363" fill="#ffffff" rx="54.0" ry="20.0" stroke="#ffffff" stroke-width="1"/>
<text font-family="Dialog" font-size="12" x="460" y="364">
statistics</text>
<ellipse cx="533" cy="515" fill="#000000" rx="55.0" ry="21.0" stroke="#000000" stroke-width="1"/>
<ellipse cx="533" cy="515" fill="#ffffff" rx="54.0" ry="20.0" stroke="#ffffff" stroke-width="1"/>
<text font-family="Dialog" font-size="12" x="504" y="516">
profitability</text>
<ellipse cx="333" cy="507" fill="#000000" rx="55.0" ry="21.0" stroke="#000000" stroke-width="1"/>
<ellipse cx="333" cy="507" fill="#ffffff" rx="54.0" ry="20.0" stroke="#ffffff" stroke-width="1"/>
<text font-family="Dialog" font-size="12" x="293" y="508">
vehicle charge</text>
<line fill="#000000" stroke="#000000" stroke-width="1" x1="353" x2="356" y1="487" y2="484"/>
<line fill="#000000" stroke="#000000" stroke-width="1" x1="360" x2="363" y1="481" y2="477"/>
<line fill="#000000" stroke="#000000" stroke-width="1" x1="367" x2="371" y1="474" y2="470"/>
<line fill="#000000" stroke="#000000" stroke-width="1" x1="374" x2="378" y1="467" y2="463"/>
<line fill="#000000" stroke="#000000" stroke-width="1" x1="382" x2="385" y1="460" y2="456"/>
<line fill="#000000" stroke="#000000" stroke-width="1" x1="389" x2="393" y1="453" y2="450"/>
<line fill="#000000" stroke="#000000" stroke-width="1" x1="396" x2="400" y1="446" y2="443"/>
<line fill="#000000" stroke="#000000" stroke-width="1" x1="404" x2="407" y1="439" y2="436"/>
<line fill="#000000" stroke="#000000" stroke-width="1" x1="411" x2="415" y1="432" y2="429"/>
<line fill="#000000" stroke="#000000" stroke-width="1" x1="418" x2="422" y1="425" y2="422"/>
<line fill="#000000" stroke="#000000" stroke-width="1" x1="426" x2="429" y1="418" y2="415"/>
<line fill="#000000" stroke="#000000" stroke-width="1" x1="433" x2="436" y1="412" y2="408"/>
<line fill="#000000" stroke="#000000" stroke-width="1" x1="440" x2="444" y1="405" y2="401"/>
<line fill="#000000" stroke="#000000" stroke-width="1" x1="447" x2="451" y1="398" y2="394"/>
<line fill="#000000" stroke="#000000" stroke-width="1" x1="455" x2="458" y1="391" y2="387"/>
<line fill="#000000" stroke="#000000" stroke-width="1" x1="462" x2="464" y1="384" y2="382"/>
<line fill="#000000" stroke="#000000" stroke-width="1" x1="460" x2="464" y1="395" y2="382"/>
<line fill="#000000" stroke="#000000" stroke-width="1" x1="450" x2="464" y1="385" y2="382"/>
<text font-family="Dialog" font-size="12" x="351" y="404">
&lt;&lt;extend&gt;&gt;</text>
<line fill="#000000" stroke="#000000" stroke-width="1" x1="526" x2="525" y1="494" y2="490"/>
<line fill="#000000" stroke="#000000" stroke-width="1" x1="523" x2="522" y1="485" y2="480"/>
<line fill="#000000" stroke="#000000" stroke-width="1" x1="520" x2="519" y1="475" y2="471"/>
<line fill="#000000" stroke="#000000" stroke-width="1" x1="517" x2="516" y1="466" y2="461"/>
<line fill="#000000" stroke="#000000" stroke-width="1" x1="514" x2="513" y1="456" y2="451"/>
<line fill="#000000" stroke="#000000" stroke-width="1" x1="511" x2="510" y1="447" y2="442"/>
<line fill="#000000" stroke="#000000" stroke-width="1" x1="508" x2="507" y1="437" y2="432"/>
<line fill="#000000" stroke="#000000" stroke-width="1" x1="505" x2="504" y1="428" y2="423"/>
<line fill="#000000" stroke="#000000" stroke-width="1" x1="502" x2="501" y1="418" y2="413"/>
<line fill="#000000" stroke="#000000" stroke-width="1" x1="499" x2="498" y1="408" y2="404"/>
<line fill="#000000" stroke="#000000" stroke-width="1" x1="496" x2="495" y1="399" y2="394"/>
<line fill="#000000" stroke="#000000" stroke-width="1" x1="493" x2="492" y1="389" y2="384"/>
<line fill="#000000" stroke="#000000" stroke-width="1" x1="501" x2="491" y1="392" y2="383"/>
<line fill="#000000" stroke="#000000" stroke-width="1" x1="487" x2="491" y1="396" y2="383"/>
<text font-family="Dialog" font-size="12" x="513" y="424">
&lt;&lt;extend&gt;&gt;</text>
<line fill="#000000" stroke="#000000" stroke-width="1" x1="519" x2="518" y1="231" y2="235"/>
<line fill="#000000" stroke="#000000" stroke-width="1" x1="517" x2="516" y1="240" y2="245"/>
<line fill="#000000" stroke="#000000" stroke-width="1" x1="514" x2="513" y1="250" y2="255"/>
<line fill="#000000" stroke="#000000" stroke-width="1" x1="512" x2="511" y1="260" y2="265"/>
<line fill="#000000" stroke="#000000" stroke-width="1" x1="509" x2="508" y1="269" y2="274"/>
<line fill="#000000" stroke="#000000" stroke-width="1" x1="507" x2="506" y1="279" y2="284"/>
<line fill="#000000" stroke="#000000" stroke-width="1" x1="504" x2="503" y1="289" y2="294"/>
<line fill="#000000" stroke="#000000" stroke-width="1" x1="502" x2="500" y1="299" y2="304"/>
<line fill="#000000" stroke="#000000" stroke-width="1" x1="499" x2="498" y1="308" y2="313"/>
<line fill="#000000" stroke="#000000" stroke-width="1" x1="497" x2="495" y1="318" y2="323"/>
<line fill="#000000" stroke="#000000" stroke-width="1" x1="494" x2="493" y1="328" y2="333"/>
<line fill="#000000" stroke="#000000" stroke-width="1" x1="492" x2="490" y1="338" y2="342"/>
<line fill="#000000" stroke="#000000" stroke-width="1" x1="486" x2="490" y1="328" y2="342"/>
<line fill="#000000" stroke="#000000" stroke-width="1" x1="499" x2="490" y1="332" y2="342"/>
<text font-family="Dialog" font-size="12" x="435" y="282">
&lt;&lt;include&gt;&gt;</text>
<polyline fill="none" points="762,212 579,211" stroke="#000000" stroke-width="1"/>
<text font-family="Dialog" font-size="12" x="627" y="192">
vehicle status</text>
<polyline fill="none" points="767,261 524,348" stroke="#000000" stroke-width="1"/>
<text font-family="Dialog" font-size="12" x="594" y="286">
get report</text>
</svg>
