<?xml version="1.0" encoding="utf-8" ?>
<!DOCTYPE svg PUBLIC "-//W3C//DTD SVG 1.1//EN" "http://www.w3.org/Graphics/SVG/1.1/DTD/svg11.dtd">
<svg height="572" version="1.1" width="611" xmlns="http://www.w3.org/2000/svg">
<line fill="#000000" stroke="#000000" stroke-width="1" x1="89" x2="89" y1="63" y2="68"/>
<line fill="#000000" stroke="#000000" stroke-width="1" x1="89" x2="89" y1="73" y2="78"/>
<line fill="#000000" stroke="#000000" stroke-width="1" x1="89" x2="89" y1="83" y2="88"/>
<line fill="#000000" stroke="#000000" stroke-width="1" x1="89" x2="89" y1="93" y2="98"/>
<line fill="#000000" stroke="#000000" stroke-width="1" x1="89" x2="89" y1="103" y2="108"/>
<line fill="#000000" stroke="#000000" stroke-width="1" x1="89" x2="89" y1="113" y2="118"/>
<line fill="#000000" stroke="#000000" stroke-width="1" x1="89" x2="89" y1="123" y2="128"/>
<line fill="#000000" stroke="#000000" stroke-width="1" x1="89" x2="89" y1="133" y2="138"/>
<line fill="#000000" stroke="#000000" stroke-width="1" x1="89" x2="89" y1="143" y2="148"/>
<line fill="#000000" stroke="#000000" stroke-width="1" x1="89" x2="89" y1="153" y2="158"/>
<line fill="#000000" stroke="#000000" stroke-width="1" x1="89" x2="89" y1="163" y2="168"/>
<line fill="#000000" stroke="#000000" stroke-width="1" x1="89" x2="89" y1="173" y2="178"/>
<line fill="#000000" stroke="#000000" stroke-width="1" x1="89" x2="89" y1="183" y2="188"/>
<line fill="#000000" stroke="#000000" stroke-width="1" x1="89" x2="89" y1="193" y2="198"/>
<line fill="#000000" stroke="#000000" stroke-width="1" x1="89" x2="89" y1="203" y2="208"/>
<line fill="#000000" stroke="#000000" stroke-width="1" x1="89" x2="89" y1="213" y2="218"/>
<line fill="#000000" stroke="#000000" stroke-width="1" x1="89" x2="89" y1="223" y2="228"/>
<line fill="#000000" stroke="#000000" stroke-width="1" x1="89" x2="89" y1="233" y2="238"/>
<line fill="#000000" stroke="#000000" stroke-width="1" x1="89" x2="89" y1="243" y2="248"/>
<line fill="#000000" stroke="#000000" stroke-width="1" x1="89" x2="89" y1="253" y2="258"/>
<line fill="#000000" stroke="#000000" stroke-width="1" x1="89" x2="89" y1="263" y2="268"/>
<line fill="#000000" stroke="#000000" stroke-width="1" x1="89" x2="89" y1="273" y2="278"/>
<line fill="#000000" stroke="#000000" stroke-width="1" x1="89" x2="89" y1="283" y2="288"/>
<line fill="#000000" stroke="#000000" stroke-width="1" x1="89" x2="89" y1="293" y2="298"/>
<line fill="#000000" stroke="#000000" stroke-width="1" x1="89" x2="89" y1="303" y2="308"/>
<line fill="#000000" stroke="#000000" stroke-width="1" x1="89" x2="89" y1="313" y2="318"/>
<line fill="#000000" stroke="#000000" stroke-width="1" x1="89" x2="89" y1="323" y2="328"/>
<line fill="#000000" stroke="#000000" stroke-width="1" x1="89" x2="89" y1="333" y2="338"/>
<line fill="#000000" stroke="#000000" stroke-width="1" x1="89" x2="89" y1="343" y2="348"/>
<line fill="#000000" stroke="#000000" stroke-width="1" x1="89" x2="89" y1="353" y2="358"/>
<line fill="#000000" stroke="#000000" stroke-width="1" x1="89" x2="89" y1="363" y2="368"/>
<line fill="#000000" stroke="#000000" stroke-width="1" x1="89" x2="89" y1="373" y2="378"/>
<line fill="#000000" stroke="#000000" stroke-width="1" x1="89" x2="89" y1="383" y2="388"/>
<line fill="#000000" stroke="#000000" stroke-width="1" x1="89" x2="89" y1="393" y2="398"/>
<line fill="#000000" stroke="#000000" stroke-width="1" x1="89" x2="89" y1="403" y2="408"/>
<line fill="#000000" stroke="#000000" stroke-width="1" x1="89" x2="89" y1="413" y2="418"/>
<line fill="#000000" stroke="#000000" stroke-width="1" x1="89" x2="89" y1="423" y2="428"/>
<line fill="#000000" stroke="#000000" stroke-width="1" x1="89" x2="89" y1="433" y2="438"/>
<line fill="#000000" stroke="#000000" stroke-width="1" x1="89" x2="89" y1="443" y2="448"/>
<line fill="#000000" stroke="#000000" stroke-width="1" x1="89" x2="89" y1="453" y2="458"/>
<line fill="#000000" stroke="#000000" stroke-width="1" x1="89" x2="89" y1="463" y2="468"/>
<line fill="#000000" stroke="#000000" stroke-width="1" x1="89" x2="89" y1="473" y2="478"/>
<line fill="#000000" stroke="#000000" stroke-width="1" x1="89" x2="89" y1="483" y2="488"/>
<line fill="#000000" stroke="#000000" stroke-width="1" x1="89" x2="89" y1="493" y2="498"/>
<line fill="#000000" stroke="#000000" stroke-width="1" x1="89" x2="89" y1="503" y2="508"/>
<line fill="#000000" stroke="#000000" stroke-width="1" x1="89" x2="89" y1="513" y2="518"/>
<rect fill="#ffffff" height="459" stroke="#ffffff" stroke-width="1" width="20" x="79" y="63"/>
<rect fill="none" height="459" stroke="#000000" stroke-width="1" width="20" x="79" y="63"/>
<line fill="#000000" stroke="#000000" stroke-width="1" x1="79" x2="99" y1="522" y2="542"/>
<line fill="#000000" stroke="#000000" stroke-width="1" x1="79" x2="99" y1="542" y2="522"/>
<rect fill="#ffffff" height="50" stroke="#ffffff" stroke-width="1" width="150" x="14" y="14"/>
<rect fill="none" height="50" stroke="#000000" stroke-width="1" width="150" x="14" y="14"/>
<text font-family="Dialog" font-size="12" x="75" y="28">
/user</text>
<line fill="#000000" stroke="#000000" stroke-width="1" x1="361" x2="361" y1="63" y2="68"/>
<line fill="#000000" stroke="#000000" stroke-width="1" x1="361" x2="361" y1="73" y2="78"/>
<line fill="#000000" stroke="#000000" stroke-width="1" x1="361" x2="361" y1="83" y2="88"/>
<line fill="#000000" stroke="#000000" stroke-width="1" x1="361" x2="361" y1="93" y2="98"/>
<line fill="#000000" stroke="#000000" stroke-width="1" x1="361" x2="361" y1="103" y2="108"/>
<line fill="#000000" stroke="#000000" stroke-width="1" x1="361" x2="361" y1="113" y2="118"/>
<line fill="#000000" stroke="#000000" stroke-width="1" x1="361" x2="361" y1="123" y2="128"/>
<line fill="#000000" stroke="#000000" stroke-width="1" x1="361" x2="361" y1="133" y2="138"/>
<line fill="#000000" stroke="#000000" stroke-width="1" x1="361" x2="361" y1="143" y2="148"/>
<line fill="#000000" stroke="#000000" stroke-width="1" x1="361" x2="361" y1="153" y2="158"/>
<line fill="#000000" stroke="#000000" stroke-width="1" x1="361" x2="361" y1="163" y2="168"/>
<line fill="#000000" stroke="#000000" stroke-width="1" x1="361" x2="361" y1="173" y2="178"/>
<line fill="#000000" stroke="#000000" stroke-width="1" x1="361" x2="361" y1="183" y2="188"/>
<line fill="#000000" stroke="#000000" stroke-width="1" x1="361" x2="361" y1="193" y2="198"/>
<line fill="#000000" stroke="#000000" stroke-width="1" x1="361" x2="361" y1="203" y2="208"/>
<line fill="#000000" stroke="#000000" stroke-width="1" x1="361" x2="361" y1="213" y2="218"/>
<line fill="#000000" stroke="#000000" stroke-width="1" x1="361" x2="361" y1="223" y2="228"/>
<line fill="#000000" stroke="#000000" stroke-width="1" x1="361" x2="361" y1="233" y2="238"/>
<line fill="#000000" stroke="#000000" stroke-width="1" x1="361" x2="361" y1="243" y2="248"/>
<line fill="#000000" stroke="#000000" stroke-width="1" x1="361" x2="361" y1="253" y2="258"/>
<line fill="#000000" stroke="#000000" stroke-width="1" x1="361" x2="361" y1="263" y2="268"/>
<line fill="#000000" stroke="#000000" stroke-width="1" x1="361" x2="361" y1="273" y2="278"/>
<line fill="#000000" stroke="#000000" stroke-width="1" x1="361" x2="361" y1="283" y2="288"/>
<line fill="#000000" stroke="#000000" stroke-width="1" x1="361" x2="361" y1="293" y2="298"/>
<line fill="#000000" stroke="#000000" stroke-width="1" x1="361" x2="361" y1="303" y2="308"/>
<line fill="#000000" stroke="#000000" stroke-width="1" x1="361" x2="361" y1="313" y2="318"/>
<line fill="#000000" stroke="#000000" stroke-width="1" x1="361" x2="361" y1="323" y2="328"/>
<line fill="#000000" stroke="#000000" stroke-width="1" x1="361" x2="361" y1="333" y2="338"/>
<line fill="#000000" stroke="#000000" stroke-width="1" x1="361" x2="361" y1="343" y2="348"/>
<line fill="#000000" stroke="#000000" stroke-width="1" x1="361" x2="361" y1="353" y2="358"/>
<line fill="#000000" stroke="#000000" stroke-width="1" x1="361" x2="361" y1="363" y2="368"/>
<line fill="#000000" stroke="#000000" stroke-width="1" x1="361" x2="361" y1="373" y2="378"/>
<line fill="#000000" stroke="#000000" stroke-width="1" x1="361" x2="361" y1="383" y2="388"/>
<line fill="#000000" stroke="#000000" stroke-width="1" x1="361" x2="361" y1="393" y2="398"/>
<line fill="#000000" stroke="#000000" stroke-width="1" x1="361" x2="361" y1="403" y2="408"/>
<line fill="#000000" stroke="#000000" stroke-width="1" x1="361" x2="361" y1="413" y2="418"/>
<line fill="#000000" stroke="#000000" stroke-width="1" x1="361" x2="361" y1="423" y2="428"/>
<line fill="#000000" stroke="#000000" stroke-width="1" x1="361" x2="361" y1="433" y2="438"/>
<line fill="#000000" stroke="#000000" stroke-width="1" x1="361" x2="361" y1="443" y2="448"/>
<line fill="#000000" stroke="#000000" stroke-width="1" x1="361" x2="361" y1="453" y2="458"/>
<line fill="#000000" stroke="#000000" stroke-width="1" x1="361" x2="361" y1="463" y2="468"/>
<line fill="#000000" stroke="#000000" stroke-width="1" x1="361" x2="361" y1="473" y2="478"/>
<line fill="#000000" stroke="#000000" stroke-width="1" x1="361" x2="361" y1="483" y2="488"/>
<line fill="#000000" stroke="#000000" stroke-width="1" x1="361" x2="361" y1="493" y2="498"/>
<line fill="#000000" stroke="#000000" stroke-width="1" x1="361" x2="361" y1="503" y2="508"/>
<line fill="#000000" stroke="#000000" stroke-width="1" x1="361" x2="361" y1="513" y2="518"/>
<line fill="#000000" stroke="#000000" stroke-width="1" x1="361" x2="361" y1="523" y2="528"/>
<line fill="#000000" stroke="#000000" stroke-width="1" x1="361" x2="361" y1="533" y2="538"/>
<line fill="#000000" stroke="#000000" stroke-width="1" x1="361" x2="361" y1="543" y2="548"/>
<rect fill="#ffffff" height="90" stroke="#ffffff" stroke-width="1" width="20" x="351" y="114"/>
<rect fill="none" height="90" stroke="#000000" stroke-width="1" width="20" x="351" y="114"/>
<rect fill="#ffffff" height="50" stroke="#ffffff" stroke-width="1" width="20" x="351" y="298"/>
<rect fill="none" height="50" stroke="#000000" stroke-width="1" width="20" x="351" y="298"/>
<rect fill="#ffffff" height="50" stroke="#ffffff" stroke-width="1" width="20" x="351" y="418"/>
<rect fill="none" height="50" stroke="#000000" stroke-width="1" width="20" x="351" y="418"/>
<rect fill="#ffffff" height="50" stroke="#ffffff" stroke-width="1" width="150" x="286" y="14"/>
<rect fill="none" height="50" stroke="#000000" stroke-width="1" width="150" x="286" y="14"/>
<text font-family="Dialog" font-size="12" x="334" y="28">
/controller</text>
<line fill="#000000" stroke="#000000" stroke-width="1" x1="565" x2="565" y1="63" y2="68"/>
<line fill="#000000" stroke="#000000" stroke-width="1" x1="565" x2="565" y1="73" y2="78"/>
<line fill="#000000" stroke="#000000" stroke-width="1" x1="565" x2="565" y1="83" y2="88"/>
<line fill="#000000" stroke="#000000" stroke-width="1" x1="565" x2="565" y1="93" y2="98"/>
<line fill="#000000" stroke="#000000" stroke-width="1" x1="565" x2="565" y1="103" y2="108"/>
<line fill="#000000" stroke="#000000" stroke-width="1" x1="565" x2="565" y1="113" y2="118"/>
<line fill="#000000" stroke="#000000" stroke-width="1" x1="565" x2="565" y1="123" y2="128"/>
<line fill="#000000" stroke="#000000" stroke-width="1" x1="565" x2="565" y1="133" y2="138"/>
<line fill="#000000" stroke="#000000" stroke-width="1" x1="565" x2="565" y1="143" y2="148"/>
<line fill="#000000" stroke="#000000" stroke-width="1" x1="565" x2="565" y1="153" y2="158"/>
<line fill="#000000" stroke="#000000" stroke-width="1" x1="565" x2="565" y1="163" y2="168"/>
<line fill="#000000" stroke="#000000" stroke-width="1" x1="565" x2="565" y1="173" y2="178"/>
<line fill="#000000" stroke="#000000" stroke-width="1" x1="565" x2="565" y1="183" y2="188"/>
<line fill="#000000" stroke="#000000" stroke-width="1" x1="565" x2="565" y1="193" y2="198"/>
<line fill="#000000" stroke="#000000" stroke-width="1" x1="565" x2="565" y1="203" y2="208"/>
<line fill="#000000" stroke="#000000" stroke-width="1" x1="565" x2="565" y1="213" y2="218"/>
<line fill="#000000" stroke="#000000" stroke-width="1" x1="565" x2="565" y1="223" y2="228"/>
<line fill="#000000" stroke="#000000" stroke-width="1" x1="565" x2="565" y1="233" y2="238"/>
<line fill="#000000" stroke="#000000" stroke-width="1" x1="565" x2="565" y1="243" y2="248"/>
<line fill="#000000" stroke="#000000" stroke-width="1" x1="565" x2="565" y1="253" y2="258"/>
<line fill="#000000" stroke="#000000" stroke-width="1" x1="565" x2="565" y1="263" y2="268"/>
<line fill="#000000" stroke="#000000" stroke-width="1" x1="565" x2="565" y1="273" y2="278"/>
<line fill="#000000" stroke="#000000" stroke-width="1" x1="565" x2="565" y1="283" y2="288"/>
<line fill="#000000" stroke="#000000" stroke-width="1" x1="565" x2="565" y1="293" y2="298"/>
<line fill="#000000" stroke="#000000" stroke-width="1" x1="565" x2="565" y1="303" y2="308"/>
<line fill="#000000" stroke="#000000" stroke-width="1" x1="565" x2="565" y1="313" y2="318"/>
<line fill="#000000" stroke="#000000" stroke-width="1" x1="565" x2="565" y1="323" y2="328"/>
<line fill="#000000" stroke="#000000" stroke-width="1" x1="565" x2="565" y1="333" y2="338"/>
<line fill="#000000" stroke="#000000" stroke-width="1" x1="565" x2="565" y1="343" y2="348"/>
<line fill="#000000" stroke="#000000" stroke-width="1" x1="565" x2="565" y1="353" y2="358"/>
<line fill="#000000" stroke="#000000" stroke-width="1" x1="565" x2="565" y1="363" y2="368"/>
<line fill="#000000" stroke="#000000" stroke-width="1" x1="565" x2="565" y1="373" y2="378"/>
<line fill="#000000" stroke="#000000" stroke-width="1" x1="565" x2="565" y1="383" y2="388"/>
<line fill="#000000" stroke="#000000" stroke-width="1" x1="565" x2="565" y1="393" y2="398"/>
<line fill="#000000" stroke="#000000" stroke-width="1" x1="565" x2="565" y1="403" y2="408"/>
<line fill="#000000" stroke="#000000" stroke-width="1" x1="565" x2="565" y1="413" y2="418"/>
<line fill="#000000" stroke="#000000" stroke-width="1" x1="565" x2="565" y1="423" y2="428"/>
<line fill="#000000" stroke="#000000" stroke-width="1" x1="565" x2="565" y1="433" y2="438"/>
<line fill="#000000" stroke="#000000" stroke-width="1" x1="565" x2="565" y1="443" y2="448"/>
<line fill="#000000" stroke="#000000" stroke-width="1" x1="565" x2="565" y1="453" y2="458"/>
<line fill="#000000" stroke="#000000" stroke-width="1" x1="565" x2="565" y1="463" y2="468"/>
<line fill="#000000" stroke="#000000" stroke-width="1" x1="565" x2="565" y1="473" y2="478"/>
<line fill="#000000" stroke="#000000" stroke-width="1" x1="565" x2="565" y1="483" y2="488"/>
<line fill="#000000" stroke="#000000" stroke-width="1" x1="565" x2="565" y1="493" y2="498"/>
<line fill="#000000" stroke="#000000" stroke-width="1" x1="565" x2="565" y1="503" y2="508"/>
<line fill="#000000" stroke="#000000" stroke-width="1" x1="565" x2="565" y1="513" y2="518"/>
<line fill="#000000" stroke="#000000" stroke-width="1" x1="565" x2="565" y1="523" y2="528"/>
<line fill="#000000" stroke="#000000" stroke-width="1" x1="565" x2="565" y1="533" y2="538"/>
<line fill="#000000" stroke="#000000" stroke-width="1" x1="565" x2="565" y1="543" y2="548"/>
<line fill="#000000" stroke="#000000" stroke-width="1" x1="565" x2="565" y1="553" y2="557"/>
<rect fill="#ffffff" height="50" stroke="#ffffff" stroke-width="1" width="20" x="555" y="134"/>
<rect fill="none" height="50" stroke="#000000" stroke-width="1" width="20" x="555" y="134"/>
<rect fill="#ffffff" height="50" stroke="#ffffff" stroke-width="1" width="63" x="534" y="14"/>
<rect fill="none" height="50" stroke="#000000" stroke-width="1" width="63" x="534" y="14"/>
<text font-family="Dialog" font-size="12" x="538" y="28">
/database</text>
<polyline fill="none" points="99,114 351,114" stroke="#000000" stroke-width="1"/>
<polygon fill="#000000" points="351,114 339,121 339,107" stroke="#000000" stroke-width="1"/>
<polygon fill="none" points="351,114 339,121 339,107" stroke="#000000" stroke-width="1"/>
<text font-family="Dialog" font-size="12" x="181" y="109">
browse()</text>
<line fill="#000000" stroke="#000000" stroke-width="1" x1="351" x2="346" y1="204" y2="204"/>
<line fill="#000000" stroke="#000000" stroke-width="1" x1="341" x2="336" y1="204" y2="204"/>
<line fill="#000000" stroke="#000000" stroke-width="1" x1="331" x2="326" y1="204" y2="204"/>
<line fill="#000000" stroke="#000000" stroke-width="1" x1="321" x2="316" y1="204" y2="204"/>
<line fill="#000000" stroke="#000000" stroke-width="1" x1="311" x2="306" y1="204" y2="204"/>
<line fill="#000000" stroke="#000000" stroke-width="1" x1="301" x2="296" y1="204" y2="204"/>
<line fill="#000000" stroke="#000000" stroke-width="1" x1="291" x2="286" y1="204" y2="204"/>
<line fill="#000000" stroke="#000000" stroke-width="1" x1="281" x2="276" y1="204" y2="204"/>
<line fill="#000000" stroke="#000000" stroke-width="1" x1="271" x2="266" y1="204" y2="204"/>
<line fill="#000000" stroke="#000000" stroke-width="1" x1="261" x2="256" y1="204" y2="204"/>
<line fill="#000000" stroke="#000000" stroke-width="1" x1="251" x2="246" y1="204" y2="204"/>
<line fill="#000000" stroke="#000000" stroke-width="1" x1="241" x2="236" y1="204" y2="204"/>
<line fill="#000000" stroke="#000000" stroke-width="1" x1="231" x2="226" y1="204" y2="204"/>
<line fill="#000000" stroke="#000000" stroke-width="1" x1="221" x2="216" y1="204" y2="204"/>
<line fill="#000000" stroke="#000000" stroke-width="1" x1="211" x2="206" y1="204" y2="204"/>
<line fill="#000000" stroke="#000000" stroke-width="1" x1="201" x2="196" y1="204" y2="204"/>
<line fill="#000000" stroke="#000000" stroke-width="1" x1="191" x2="186" y1="204" y2="204"/>
<line fill="#000000" stroke="#000000" stroke-width="1" x1="181" x2="176" y1="204" y2="204"/>
<line fill="#000000" stroke="#000000" stroke-width="1" x1="171" x2="166" y1="204" y2="204"/>
<line fill="#000000" stroke="#000000" stroke-width="1" x1="161" x2="156" y1="204" y2="204"/>
<line fill="#000000" stroke="#000000" stroke-width="1" x1="151" x2="146" y1="204" y2="204"/>
<line fill="#000000" stroke="#000000" stroke-width="1" x1="141" x2="136" y1="204" y2="204"/>
<line fill="#000000" stroke="#000000" stroke-width="1" x1="131" x2="126" y1="204" y2="204"/>
<line fill="#000000" stroke="#000000" stroke-width="1" x1="121" x2="116" y1="204" y2="204"/>
<line fill="#000000" stroke="#000000" stroke-width="1" x1="111" x2="106" y1="204" y2="204"/>
<line fill="#000000" stroke="#000000" stroke-width="1" x1="101" x2="99" y1="204" y2="204"/>
<line fill="#000000" stroke="#000000" stroke-width="1" x1="111" x2="99" y1="197" y2="204"/>
<line fill="#000000" stroke="#000000" stroke-width="1" x1="111" x2="99" y1="211" y2="204"/>
<text font-family="Dialog" font-size="12" x="181" y="199">
display vehicles</text>
<polyline fill="none" points="371,134 555,134" stroke="#000000" stroke-width="1"/>
<polygon fill="#000000" points="555,134 543,141 543,127" stroke="#000000" stroke-width="1"/>
<polygon fill="none" points="555,134 543,141 543,127" stroke="#000000" stroke-width="1"/>
<text font-family="Dialog" font-size="12" x="419" y="129">
request vehicles</text>
<line fill="#000000" stroke="#000000" stroke-width="1" x1="555" x2="550" y1="184" y2="184"/>
<line fill="#000000" stroke="#000000" stroke-width="1" x1="545" x2="540" y1="184" y2="184"/>
<line fill="#000000" stroke="#000000" stroke-width="1" x1="535" x2="530" y1="184" y2="184"/>
<line fill="#000000" stroke="#000000" stroke-width="1" x1="525" x2="520" y1="184" y2="184"/>
<line fill="#000000" stroke="#000000" stroke-width="1" x1="515" x2="510" y1="184" y2="184"/>
<line fill="#000000" stroke="#000000" stroke-width="1" x1="505" x2="500" y1="184" y2="184"/>
<line fill="#000000" stroke="#000000" stroke-width="1" x1="495" x2="490" y1="184" y2="184"/>
<line fill="#000000" stroke="#000000" stroke-width="1" x1="485" x2="480" y1="184" y2="184"/>
<line fill="#000000" stroke="#000000" stroke-width="1" x1="475" x2="470" y1="184" y2="184"/>
<line fill="#000000" stroke="#000000" stroke-width="1" x1="465" x2="460" y1="184" y2="184"/>
<line fill="#000000" stroke="#000000" stroke-width="1" x1="455" x2="450" y1="184" y2="184"/>
<line fill="#000000" stroke="#000000" stroke-width="1" x1="445" x2="440" y1="184" y2="184"/>
<line fill="#000000" stroke="#000000" stroke-width="1" x1="435" x2="430" y1="184" y2="184"/>
<line fill="#000000" stroke="#000000" stroke-width="1" x1="425" x2="420" y1="184" y2="184"/>
<line fill="#000000" stroke="#000000" stroke-width="1" x1="415" x2="410" y1="184" y2="184"/>
<line fill="#000000" stroke="#000000" stroke-width="1" x1="405" x2="400" y1="184" y2="184"/>
<line fill="#000000" stroke="#000000" stroke-width="1" x1="395" x2="390" y1="184" y2="184"/>
<line fill="#000000" stroke="#000000" stroke-width="1" x1="385" x2="380" y1="184" y2="184"/>
<line fill="#000000" stroke="#000000" stroke-width="1" x1="375" x2="371" y1="184" y2="184"/>
<line fill="#000000" stroke="#000000" stroke-width="1" x1="383" x2="371" y1="177" y2="184"/>
<line fill="#000000" stroke="#000000" stroke-width="1" x1="383" x2="371" y1="191" y2="184"/>
<text font-family="Dialog" font-size="12" x="418" y="178">
available vehicles</text>
<polyline fill="none" points="99,250 351,250" stroke="#000000" stroke-width="1"/>
<line fill="#000000" stroke="#000000" stroke-width="1" x1="339" x2="351" y1="257" y2="250"/>
<line fill="#000000" stroke="#000000" stroke-width="1" x1="339" x2="351" y1="243" y2="250"/>
<text font-family="Dialog" font-size="12" x="181" y="245">
user details</text>
<polyline fill="none" points="99,298 351,298" stroke="#000000" stroke-width="1"/>
<polygon fill="#000000" points="351,298 339,305 339,291" stroke="#000000" stroke-width="1"/>
<polygon fill="none" points="351,298 339,305 339,291" stroke="#000000" stroke-width="1"/>
<text font-family="Dialog" font-size="12" x="181" y="293">
rent()</text>
<line fill="#000000" stroke="#000000" stroke-width="1" x1="351" x2="346" y1="348" y2="348"/>
<line fill="#000000" stroke="#000000" stroke-width="1" x1="341" x2="336" y1="348" y2="348"/>
<line fill="#000000" stroke="#000000" stroke-width="1" x1="331" x2="326" y1="348" y2="348"/>
<line fill="#000000" stroke="#000000" stroke-width="1" x1="321" x2="316" y1="348" y2="348"/>
<line fill="#000000" stroke="#000000" stroke-width="1" x1="311" x2="306" y1="348" y2="348"/>
<line fill="#000000" stroke="#000000" stroke-width="1" x1="301" x2="296" y1="348" y2="348"/>
<line fill="#000000" stroke="#000000" stroke-width="1" x1="291" x2="286" y1="348" y2="348"/>
<line fill="#000000" stroke="#000000" stroke-width="1" x1="281" x2="276" y1="348" y2="348"/>
<line fill="#000000" stroke="#000000" stroke-width="1" x1="271" x2="266" y1="348" y2="348"/>
<line fill="#000000" stroke="#000000" stroke-width="1" x1="261" x2="256" y1="348" y2="348"/>
<line fill="#000000" stroke="#000000" stroke-width="1" x1="251" x2="246" y1="348" y2="348"/>
<line fill="#000000" stroke="#000000" stroke-width="1" x1="241" x2="236" y1="348" y2="348"/>
<line fill="#000000" stroke="#000000" stroke-width="1" x1="231" x2="226" y1="348" y2="348"/>
<line fill="#000000" stroke="#000000" stroke-width="1" x1="221" x2="216" y1="348" y2="348"/>
<line fill="#000000" stroke="#000000" stroke-width="1" x1="211" x2="206" y1="348" y2="348"/>
<line fill="#000000" stroke="#000000" stroke-width="1" x1="201" x2="196" y1="348" y2="348"/>
<line fill="#000000" stroke="#000000" stroke-width="1" x1="191" x2="186" y1="348" y2="348"/>
<line fill="#000000" stroke="#000000" stroke-width="1" x1="181" x2="176" y1="348" y2="348"/>
<line fill="#000000" stroke="#000000" stroke-width="1" x1="171" x2="166" y1="348" y2="348"/>
<line fill="#000000" stroke="#000000" stroke-width="1" x1="161" x2="156" y1="348" y2="348"/>
<line fill="#000000" stroke="#000000" stroke-width="1" x1="151" x2="146" y1="348" y2="348"/>
<line fill="#000000" stroke="#000000" stroke-width="1" x1="141" x2="136" y1="348" y2="348"/>
<line fill="#000000" stroke="#000000" stroke-width="1" x1="131" x2="126" y1="348" y2="348"/>
<line fill="#000000" stroke="#000000" stroke-width="1" x1="121" x2="116" y1="348" y2="348"/>
<line fill="#000000" stroke="#000000" stroke-width="1" x1="111" x2="106" y1="348" y2="348"/>
<line fill="#000000" stroke="#000000" stroke-width="1" x1="101" x2="99" y1="348" y2="348"/>
<line fill="#000000" stroke="#000000" stroke-width="1" x1="111" x2="99" y1="341" y2="348"/>
<line fill="#000000" stroke="#000000" stroke-width="1" x1="111" x2="99" y1="355" y2="348"/>
<text font-family="Dialog" font-size="12" x="181" y="343">
confirmation()</text>
<polyline fill="none" points="99,418 351,418" stroke="#000000" stroke-width="1"/>
<polygon fill="#000000" points="351,418 339,425 339,411" stroke="#000000" stroke-width="1"/>
<polygon fill="none" points="351,418 339,425 339,411" stroke="#000000" stroke-width="1"/>
<text font-family="Dialog" font-size="12" x="181" y="413">
return</text>
<line fill="#000000" stroke="#000000" stroke-width="1" x1="351" x2="346" y1="468" y2="468"/>
<line fill="#000000" stroke="#000000" stroke-width="1" x1="341" x2="336" y1="468" y2="468"/>
<line fill="#000000" stroke="#000000" stroke-width="1" x1="331" x2="326" y1="468" y2="468"/>
<line fill="#000000" stroke="#000000" stroke-width="1" x1="321" x2="316" y1="468" y2="468"/>
<line fill="#000000" stroke="#000000" stroke-width="1" x1="311" x2="306" y1="468" y2="468"/>
<line fill="#000000" stroke="#000000" stroke-width="1" x1="301" x2="296" y1="468" y2="468"/>
<line fill="#000000" stroke="#000000" stroke-width="1" x1="291" x2="286" y1="468" y2="468"/>
<line fill="#000000" stroke="#000000" stroke-width="1" x1="281" x2="276" y1="468" y2="468"/>
<line fill="#000000" stroke="#000000" stroke-width="1" x1="271" x2="266" y1="468" y2="468"/>
<line fill="#000000" stroke="#000000" stroke-width="1" x1="261" x2="256" y1="468" y2="468"/>
<line fill="#000000" stroke="#000000" stroke-width="1" x1="251" x2="246" y1="468" y2="468"/>
<line fill="#000000" stroke="#000000" stroke-width="1" x1="241" x2="236" y1="468" y2="468"/>
<line fill="#000000" stroke="#000000" stroke-width="1" x1="231" x2="226" y1="468" y2="468"/>
<line fill="#000000" stroke="#000000" stroke-width="1" x1="221" x2="216" y1="468" y2="468"/>
<line fill="#000000" stroke="#000000" stroke-width="1" x1="211" x2="206" y1="468" y2="468"/>
<line fill="#000000" stroke="#000000" stroke-width="1" x1="201" x2="196" y1="468" y2="468"/>
<line fill="#000000" stroke="#000000" stroke-width="1" x1="191" x2="186" y1="468" y2="468"/>
<line fill="#000000" stroke="#000000" stroke-width="1" x1="181" x2="176" y1="468" y2="468"/>
<line fill="#000000" stroke="#000000" stroke-width="1" x1="171" x2="166" y1="468" y2="468"/>
<line fill="#000000" stroke="#000000" stroke-width="1" x1="161" x2="156" y1="468" y2="468"/>
<line fill="#000000" stroke="#000000" stroke-width="1" x1="151" x2="146" y1="468" y2="468"/>
<line fill="#000000" stroke="#000000" stroke-width="1" x1="141" x2="136" y1="468" y2="468"/>
<line fill="#000000" stroke="#000000" stroke-width="1" x1="131" x2="126" y1="468" y2="468"/>
<line fill="#000000" stroke="#000000" stroke-width="1" x1="121" x2="116" y1="468" y2="468"/>
<line fill="#000000" stroke="#000000" stroke-width="1" x1="111" x2="106" y1="468" y2="468"/>
<line fill="#000000" stroke="#000000" stroke-width="1" x1="101" x2="99" y1="468" y2="468"/>
<line fill="#000000" stroke="#000000" stroke-width="1" x1="111" x2="99" y1="461" y2="468"/>
<line fill="#000000" stroke="#000000" stroke-width="1" x1="111" x2="99" y1="475" y2="468"/>
<text font-family="Dialog" font-size="12" x="181" y="463">
invoice</text>
<polyline fill="none" points="371,438 555,438" stroke="#000000" stroke-width="1"/>
<line fill="#000000" stroke="#000000" stroke-width="1" x1="543" x2="555" y1="445" y2="438"/>
<line fill="#000000" stroke="#000000" stroke-width="1" x1="543" x2="555" y1="431" y2="438"/>
<text font-family="Dialog" font-size="12" x="419" y="433">
save record</text>
<polyline fill="none" points="371,318 555,318" stroke="#000000" stroke-width="1"/>
<line fill="#000000" stroke="#000000" stroke-width="1" x1="543" x2="555" y1="325" y2="318"/>
<line fill="#000000" stroke="#000000" stroke-width="1" x1="543" x2="555" y1="311" y2="318"/>
<text font-family="Dialog" font-size="12" x="419" y="313">
update status</text>
<polyline fill="none" points="351,522 99,522" stroke="#000000" stroke-width="1"/>
<polygon fill="#000000" points="99,522 111,515 111,529" stroke="#000000" stroke-width="1"/>
<polygon fill="none" points="99,522 111,515 111,529" stroke="#000000" stroke-width="1"/>
<text font-family="Dialog" font-size="12" x="181" y="517">
end session</text>
</svg>
